              ***********************************************

                BTUnhide - Largest Bittorrent Community
      
                          http://btunhide.com/
    
              ***********************************************
The Hangover Part III 2013 R6 PPVRiP WEBRiP XViD - JUSTiCE

SOURCE: video - smy / Youtube
audio - UNIQUE / a friend

Video and audio both cleaned and given justice
Check sample and see

Why the tag ?? simples,users moan its not that,its not this ...so best to be safe 
Anyway ..i was told in may that it was due for a ppv showing early june and hey presto my friend
was right,so in that case this could well be a chinese ppv rip ???

Right took smys video and cleaned it up some..had to use a HQ smoother to remove the noise but able me
to keep some sharpness still
Oh blurred the one logo in the top right corner,but subs were too big to blur or crop 
Also slightly tweaked contrast,brightness,colouring etc....Once done i append the youtube ending to the video
Audio i stuck with uniques line and only added an odd -100ms offset a few times before finally cleaning it in adobe
Audio once again for the youtube clip came from an old pal 

Yes the video is clearer and holds contrast/brightness/colour levels better than the TS release,but downside was and is
the subs that are HC to this video.Some won't mind,some will
Either way we've now released both so users can take their pick

Video
ID: 0
Format: MPEG-4 Visual
Format profile: Advanced Simple@L5
Format settings, BVOP: 2
Format settings, QPel: No
Format settings, GMC: No warppoints
Format settings, Matrix: Default (MPEG)
Muxing mode: Packed bitstream
Codec ID: XVID
Codec ID/Hint: XviD
Duration: 1h 39mn
Bit rate: 2 409 Kbps
Width: 720 pixels
Height: 304 pixels
Display aspect ratio: 2.35:1
Frame rate: 23.976 fps
Color space: YUV
Chroma subsampling: 4:2:0
Bit depth: 8 bits
Scan type: Progressive
Compression mode: Lossy
Bits/(Pixel*Frame): 0.459
Stream size: 1.68 GiB (95%)
Writing library: XviD 64

Audio
ID: 1
Format: MPEG Audio
Format version: Version 1
Format profile: Layer 3
Mode: Joint stereo
Mode extension: MS Stereo
Codec ID: 55
Codec ID/Hint: MP3
Duration: 1h 39mn
Bit rate mode: Constant
Bit rate: 128 Kbps
Channel(s): 2 channels
Sampling rate: 48.0 KHz
Compression mode: Lossy
Stream size: 91.4 MiB (5%)
Alignment: Split accross interleaves
Interleave, duration: 42 ms (1.00 video frame)
Interleave, preload duration: 500 ms 
 
http://imgsure.com/?p=226790 
http://imgsure.com/?p=964213 
http://imgsure.com/?p=701359